<?xml version="1.0" ?><!DOCTYPE svg  PUBLIC '-//W3C//DTD SVG 1.1//EN'  'http://www.w3.org/Graphics/SVG/1.1/DTD/svg11.dtd'><svg height="2048px" style="shape-rendering:geometricPrecision; text-rendering:geometricPrecision; image-rendering:optimizeQuality; fill-rule:evenodd; clip-rule:evenodd" viewBox="0 0 2048 2048" width="2048px" xml:space="preserve" xmlns="http://www.w3.org/2000/svg" xmlns:xlink="http://www.w3.org/1999/xlink"><defs><style type="text/css">
   <![CDATA[
    .fil1 {fill:none}
    .fil0 {fill:#424242;fill-rule:nonzero}
   ]]>
  </style></defs><g id="Layer_x0020_1"><path class="fil0" d="M784.594 1775.93c-5.73898,0 -12.1099,-0.598819 -19.1551,-1.88622l2.87481 -31.6252 28.3902 -0.00590552c4.71378,-1.31457 8.4567,-3.41575 11.3539,-6.03071 4.96181,-4.47992 7.82599,-10.6937 9.00119,-17.1177 0.393307,-2.15197 0.582284,-4.52953 0.582284,-7.03583 0,-17.1697 -0.153543,-33.2055 -0.356693,-54.7264 -0.229134,-24.1677 -0.516142,-54.1961 -0.753544,-88.6217 -258.799,46.9831 -319.217,-134.775 -321.697,-142.595 -41.1803,-104.091 -97.8119,-130.628 -97.9761,-130.707l-2.1248 -1.18819c-130.439,-89.1426 15.228,-87.2942 15.6414,-87.293l1.00039 0c102.02,7.18111 156.354,101.244 159.315,106.5l0.0106299 -0.00590552c31.011,53.1331 69.1654,79.3335 107.076,90.1572 54.9922,15.6992 110.447,-0.18189 143.204,-13.7232 4.5437,-26.8583 12.0284,-50.0811 21.3697,-69.7536 6.2941,-13.2543 13.4528,-24.9425 21.1512,-35.0906 -98.8288,-14.0232 -197.87,-42.6567 -275.24,-107.786 -85.8449,-72.2658 -144.027,-188.348 -144.027,-377.124l0.0625985 0c0.00826772,-52.7882 9.14528,-100.878 25.8189,-144.331 16.526,-43.0689 40.4764,-81.6556 70.3004,-115.817 -5.70591,-16.2142 -13.6299,-44.4721 -16.1315,-81.8812 -3.05906,-45.7512 1.93228,-105.447 29.002,-173.888l0.624804 -1.24961c0.0165354,-0.0330709 11.7685,-10.0417 28.3807,-10.8827 10.9583,-0.553937 27.4973,0.0212599 49.8189,4.53426 43.4717,8.78977 110.06,32.8961 201.989,94.2686 36.3201,-9.76418 73.806,-17.1839 111.829,-22.298 41.1414,-5.53229 83.0327,-8.37048 124.869,-8.55709l0.125197 0c41.7898,0.186614 83.6339,3.02599 124.749,8.55473 38.041,5.11654 75.5623,12.5433 111.95,22.3063 184.793,-123.404 269.951,-96.1867 270.202,-96.1135l7.44449 2.20748 2.86772 7.22953c27.1748,68.5312 32.2134,128.17 29.1815,173.825 -2.48386,37.4008 -10.3772,65.6469 -16.0595,81.8741 29.8063,34.076 53.6823,72.6142 70.1717,115.667 16.7091,43.6276 25.8213,91.7989 25.8213,144.551 0,189.299 -58.2685,305.327 -144.281,377.335 -77.426,64.8213 -176.587,93.0804 -275.626,106.865 11.5807,15.1465 21.991,33.7831 30.1193,55.9725 10.9406,29.8713 17.798,66.2575 17.798,109.27 0,76.7469 -0.56693,156.597 -0.941339,209.467 -0.137008,19.4008 -0.240945,33.8929 -0.240945,53.0469l-0.0625985 0c0.0011811,2.39292 0.246851,4.95945 0.761812,7.62993 1.23307,6.39449 4.06418,12.5102 8.90079,16.8461 2.6504,2.37638 6.01418,4.31457 10.1882,5.60434l30.0059 -0.00590552 3 31.6252c-7.10906,1.37008 -13.8307,2.00669 -20.1626,2.01024 -6.13229,0.00354331 -11.7803,-0.611811 -16.9677,-1.75276l-538.689 0.102756c-5.05512,1.06536 -10.5343,1.64173 -16.461,1.64173z"/></g><rect class="fil1" height="2048" width="2048"/></svg>